HIERARCHY
ROOT Hips
{
	OFFSET 0.0000 0.0000 0.0000
	CHANNELS 6 Xposition Yposition Zposition Zrotation Xrotation Yrotation
	JOINT Ab
	{
		OFFSET -0.0000 8.1305 -0.0000
		CHANNELS 3 Zrotation Xrotation Yrotation
		JOINT Chest
		{
			OFFSET -0.0000 26.2902 -0.0000
			CHANNELS 3 Zrotation Xrotation Yrotation
			JOINT Neck
			{
				OFFSET -0.0000 26.2902 0.0000
				CHANNELS 3 Zrotation Xrotation Yrotation
				JOINT Head
				{
					OFFSET -0.0000 10.8167 0.0000
					CHANNELS 3 Zrotation Xrotation Yrotation
					End Site
					{
						OFFSET -0.0000 16.7167 0.0000
					}
				}
			}
			JOINT LeftCollar
			{
				OFFSET -0.0000 26.2902 0.0000
				CHANNELS 3 Zrotation Xrotation Yrotation
				JOINT LeftShoulder
				{
					OFFSET 19.6667 -0.0000 0.0000
					CHANNELS 3 Zrotation Xrotation Yrotation
					JOINT LeftElbow
					{
						OFFSET 27.2190 0.0000 0.0000
						CHANNELS 3 Zrotation Xrotation Yrotation
						JOINT LeftWrist
						{
							OFFSET 30.7431 0.0000 0.0000
							CHANNELS 3 Zrotation Xrotation Yrotation
							End Site
							{
								OFFSET 0.0000 -14.7500 0.0000
							}
						}
					}
				}
			}
			JOINT RightCollar
			{
				OFFSET -0.0000 26.2902 0.0000
				CHANNELS 3 Zrotation Xrotation Yrotation
				JOINT RightShoulder
				{
					OFFSET -19.6667 0.0000 0.0000
					CHANNELS 3 Zrotation Xrotation Yrotation
					JOINT RightElbow
					{
						OFFSET -27.2190 0.0000 0.0000
						CHANNELS 3 Zrotation Xrotation Yrotation
						JOINT RightWrist
						{
							OFFSET -30.7431 0.0000 0.0000
							CHANNELS 3 Zrotation Xrotation Yrotation
							End Site
							{
								OFFSET -0.0000 -14.7500 0.0000
							}
						}
					}
				}
			}
		}
	}
	JOINT LeftHip
	{
		OFFSET 11.8000 0.0000 0.0000
		CHANNELS 3 Zrotation Xrotation Yrotation
		JOINT LeftKnee
		{
			OFFSET -0.0000 -39.7832 0.0000
			CHANNELS 3 Zrotation Xrotation Yrotation
			JOINT LeftAnkle
			{
				OFFSET -0.0000 -41.7317 0.0000
				CHANNELS 3 Zrotation Xrotation Yrotation
				End Site
				{
					OFFSET -0.0000 -4.9167 16.7167
				}
			}
		}
	}
	JOINT RightHip
	{
		OFFSET -11.8000 0.0000 0.0000
		CHANNELS 3 Zrotation Xrotation Yrotation
		JOINT RightKnee
		{
			OFFSET -0.0000 -39.7832 0.0000
			CHANNELS 3 Zrotation Xrotation Yrotation
			JOINT RightAnkle
			{
				OFFSET -0.0000 -41.7317 0.0000
				CHANNELS 3 Zrotation Xrotation Yrotation
				End Site
				{
					OFFSET -0.0000 -4.9167 16.7167
				}
			}
		}
	}
}
MOTION
Frames: 16
Frame Time: 0.010000
-19.4756 97.1166 178.4622 358.5716 356.9995 181.4998 357.9931 348.1098 0.0724 2.5851 9.7303 0.0622 359.3120 357.4027 0.9047 355.3841 3.5822 1.0640 339.6408 357.3708 14.6612 315.6568 57.1288 342.3390 11.2706 356.7708 327.9891 87.3607 357.8379 349.0285 27.9330 355.8586 343.4239 46.6465 41.5008 0.9175 339.8762 354.2900 31.4644 270.3345 355.0393 9.8170 355.7058 2.8608 359.4267 357.7466 6.2205 5.2847 355.0323 351.9568 14.3297 358.9149 6.0006 11.6973 6.2348 5.0086 8.3646 348.8632 344.1651 311.7087 
-19.4954 97.1099 178.4401 358.5770 356.9722 181.4915 358.0019 348.1113 0.0818 2.5977 9.7462 0.0578 359.2995 357.3938 0.9182 355.3770 3.5927 1.0794 339.6428 357.3445 14.6771 315.6667 57.1776 342.3082 11.3098 356.7544 328.0252 87.5950 357.8061 349.1787 27.9248 355.8707 343.4214 46.6183 41.5378 0.9564 339.8445 354.2686 31.4780 270.6983 354.9422 9.1886 355.7011 2.8371 359.4103 357.7326 6.2429 5.2977 355.0936 351.9536 14.3445 358.9065 5.9743 11.6808 6.2355 5.0344 8.3555 348.8339 344.1618 311.7357 
-19.5200 97.1063 178.4121 358.5782 356.9495 181.4926 358.0014 348.1125 0.0817 2.6020 9.7559 0.0652 359.3676 357.3854 0.9224 355.2930 3.6208 1.0837 339.6521 357.3753 14.6681 315.6513 57.1734 342.3100 11.2373 356.7617 328.0237 87.6743 357.8248 349.1642 27.9156 355.8421 343.4160 46.6391 41.5690 0.9406 339.7822 354.2667 31.4833 270.7468 354.9326 9.0904 355.6888 2.8283 359.3651 357.7214 6.2570 5.2877 354.9938 351.8687 14.5251 358.8918 5.9695 11.6749 6.2360 5.0365 8.3412 348.7926 344.2018 311.8120 
-19.5410 97.1002 178.3862 358.5805 356.9205 181.4953 357.9883 348.1137 0.0893 2.6292 9.7663 0.0689 359.3917 357.3589 0.9244 355.2465 3.6610 1.0877 339.6669 357.3567 14.6514 315.5399 57.1804 342.3979 11.3453 356.7314 328.0140 87.5338 357.7930 349.1441 27.9147 355.8684 343.4137 46.6380 41.5426 0.9332 339.8409 354.2725 31.5087 270.7568 354.9356 9.0680 355.6786 2.7969 359.3389 357.7167 6.2982 5.2789 354.9920 351.8164 14.5440 358.8759 5.9452 11.6502 6.2472 5.0692 8.4033 348.8157 344.1356 311.7181 
-19.5651 97.0948 178.3571 358.5787 356.8979 181.4997 357.9880 348.1251 0.0871 2.6240 9.7603 0.0700 359.4109 357.3547 0.9298 355.2423 3.6947 1.0945 339.6731 357.3787 14.6270 315.4755 57.1456 342.4855 11.2848 356.7379 327.9817 87.5764 357.8070 349.0855 27.9200 355.8423 343.4090 46.6553 41.5882 0.9217 339.7527 354.2234 31.5217 271.1510 354.8087 8.5006 355.6618 2.7783 359.3056 357.7103 6.3306 5.2783 354.9848 351.7791 14.5653 358.8585 5.9346 11.6017 6.2493 5.0864 8.4378 348.4956 344.3208 311.7004 
-19.5914 97.0888 178.3328 358.5833 356.8589 181.5114 358.0046 348.1313 0.0864 2.6083 9.7464 0.0576 359.4187 357.3600 0.9318 355.2449 3.7005 1.0973 339.6765 357.3649 14.6405 315.5002 57.1753 342.4553 11.3282 356.7274 328.0119 87.5085 357.7900 349.0733 27.9233 355.8499 343.4102 46.6644 41.6136 0.9037 339.7721 354.2417 31.5311 271.1256 354.8231 8.4914 355.6504 2.7368 359.2736 357.7034 6.3702 5.2614 355.0165 351.7319 14.5816 358.8423 5.9048 11.5749 6.2626 5.1050 8.4336 348.7383 344.1366 311.7165 
-19.6150 97.0828 178.3037 358.5979 356.8316 181.5149 358.0081 348.1392 0.0906 2.6343 9.7557 0.0669 359.4073 357.3514 0.9265 355.2627 3.7037 1.0930 339.6451 357.3700 14.6323 315.5566 57.1497 342.4402 11.2583 356.7510 327.9949 87.6633 357.8040 349.1135 27.9053 355.8593 343.3868 46.6659 41.6505 0.9397 339.7405 354.2228 31.5064 271.1704 354.8567 8.5806 355.6514 2.7107 359.2518 357.6956 6.4081 5.2413 355.0300 351.6739 14.5986 358.8368 5.8942 11.6142 6.2760 5.1048 8.4044 348.8216 344.0557 311.7007 
-19.6391 97.0776 178.2696 358.6040 356.8091 181.5036 358.0175 348.1423 0.0983 2.6365 9.7727 0.0766 359.4090 357.3454 0.9241 355.2601 3.7101 1.0902 339.6482 357.3554 14.6317 315.5357 57.1525 342.4667 11.3005 356.7387 327.9812 87.6703 357.8087 349.1481 27.8980 355.8475 343.3771 46.6799 41.6908 0.9531 339.7352 354.2529 31.4610 270.8474 354.9085 8.8953 355.6454 2.7030 359.2402 357.6839 6.4280 5.2319 355.0502 351.6329 14.6198 358.8239 5.8877 11.6523 6.2847 5.1109 8.3677 348.8200 344.0467 311.7434 
-19.6686 97.0745 178.2433 358.6012 356.7657 181.5015 358.0265 348.1366 0.1035 2.6239 9.7808 0.0815 359.4242 357.3158 0.9253 355.2435 3.7445 1.0931 339.6618 357.3714 14.6246 315.4916 57.1323 342.5027 11.2891 356.7466 327.9705 87.6464 357.8135 349.1262 27.9055 355.8476 343.3699 46.6667 41.7030 0.9685 339.7836 354.2575 31.4495 270.6802 354.9459 9.0641 355.6227 2.6541 359.1957 357.6746 6.4790 5.2343 355.1039 351.5913 14.6466 358.7974 5.8435 11.6370 6.2936 5.1501 8.3857 348.5524 344.2032 311.7540 
-19.7002 97.0701 178.2128 358.6016 356.7288 181.4987 358.0296 348.1362 0.1137 2.6316 9.7853 0.0888 359.4148 357.2965 0.9242 355.2460 3.7773 1.0943 339.6560 357.3638 14.6301 315.5085 57.1366 342.4813 11.3041 356.7429 327.9827 87.6208 357.8057 349.1271 27.9031 355.8378 343.3767 46.6693 41.7089 0.9554 339.7986 354.2574 31.4428 270.5302 354.9918 9.3256 355.5995 2.6095 359.1667 357.6727 6.5382 5.2225 355.1210 351.5351 14.6802 358.7693 5.8130 11.6555 6.3099 5.1753 8.3804 348.4170 344.2573 311.7377 
-19.7322 97.0636 178.1721 358.6029 356.7105 181.4966 358.0431 348.1478 0.1198 2.6178 9.7855 0.0927 359.4237 357.3038 0.9294 355.2395 3.7979 1.1016 339.6462 357.3574 14.6276 315.5574 57.1218 342.4713 11.2604 356.7657 327.9870 87.6765 357.8037 349.1463 27.9057 355.8463 343.3888 46.6990 41.6885 0.9249 339.8347 354.2710 31.4138 270.3459 355.0724 9.8519 355.5783 2.5948 359.1252 357.6676 6.5880 5.2177 355.1317 351.4736 14.7162 358.7466 5.8120 11.6606 6.3226 5.1925 8.3524 348.4250 344.2134 311.7440 
-19.7647 97.0568 178.1289 358.6028 356.6896 181.5017 358.1070 348.1264 0.1123 2.5169 9.8536 0.0866 359.5054 357.2312 0.9161 355.1106 3.8853 1.0925 339.6922 357.3636 14.6267 315.5489 57.0603 342.4756 11.2484 356.7742 327.9772 87.6966 357.7792 349.1244 27.9306 355.8343 343.3858 46.7142 41.7212 0.9666 339.8207 354.2779 31.3786 270.3069 355.0154 9.8450 355.5560 2.5787 359.0805 357.6602 6.6365 5.2385 355.1891 351.4322 14.7294 358.7237 5.8081 11.6402 6.3317 5.2220 8.3648 348.6641 344.0050 311.7447 
-19.7976 97.0505 178.0902 358.6062 356.6550 181.5155 358.1493 348.0983 0.1030 2.4582 9.9232 0.0821 359.5918 357.1510 0.9063 354.9655 3.9630 1.0887 339.7370 357.3571 14.6410 315.4866 57.0100 342.5018 11.2845 356.7632 327.9586 87.7184 357.7748 349.0966 27.9386 355.8290 343.3912 46.7188 41.7576 1.0051 339.8249 354.2775 31.3683 270.2367 354.9760 9.7913 355.5385 2.4974 358.9755 357.6424 6.7774 5.2848 355.2301 351.3371 14.7595 358.7035 5.7868 11.6346 6.3421 5.2543 8.3675 348.6648 343.9566 311.7283 
-19.8295 97.0434 178.0480 358.6113 356.6248 181.5308 358.1395 348.0955 0.1049 2.4873 9.9437 0.0820 359.5913 357.1416 0.9095 354.9510 3.9668 1.0945 339.7437 357.3571 14.6508 315.4201 56.9945 342.5538 11.2795 356.7583 327.9345 87.7623 357.8161 349.0861 27.9288 355.8458 343.4079 46.7149 41.7343 1.0008 339.8581 354.2767 31.3952 270.2452 354.9870 9.8416 355.5259 2.4252 358.8738 357.6223 6.9142 5.3214 355.2529 351.2404 14.7927 358.6879 5.7732 11.6310 6.3509 5.2814 8.3441 348.4606 344.0465 311.7210 
-19.8627 97.0355 178.0078 358.6138 356.5913 181.5366 358.1447 348.1054 0.1089 2.4916 9.9406 0.0803 359.5498 357.1379 0.9049 355.0075 3.9623 1.0884 339.7469 357.3597 14.6646 315.4459 57.0056 342.5153 11.2651 356.7524 327.9536 87.7580 357.7930 349.0698 27.9367 355.8517 343.4189 46.7036 41.7010 0.9973 339.8684 354.2749 31.4206 270.2477 354.9912 9.8458 355.5067 2.3912 358.8431 357.6158 6.9736 5.2927 355.2739 351.1794 14.8340 358.6684 5.7431 11.5797 6.3573 5.3354 8.3717 348.4720 343.9791 311.7250 
-19.8988 97.0297 177.9670 358.6131 356.5512 181.5383 358.1369 348.1122 0.1184 2.5117 9.9307 0.0889 359.5349 357.1313 0.9063 355.0302 3.9658 1.0892 339.7359 357.3568 14.6902 315.5048 57.0127 342.4366 11.2477 356.7738 327.9954 87.7216 357.7638 349.0667 27.9264 355.8559 343.4133 46.6949 41.7147 1.0199 339.8283 354.2784 31.4212 270.4389 355.0039 9.6889 355.4797 2.3499 358.8177 357.6141 7.0357 5.2558 355.3325 351.1240 14.8752 358.6400 5.7085 11.5814 6.3746 5.3818 8.3683 348.4818 343.9177 311.7120 
